<?xml version="1.0" encoding="iso-8859-1"?>
<!-- Generator: Adobe Illustrator 19.0.0, SVG Export Plug-In . SVG Version: 6.00 Build 0)  -->
<svg version="1.1" id="Capa_1" xmlns="http://www.w3.org/2000/svg" xmlns:xlink="http://www.w3.org/1999/xlink" x="0px" y="0px"
	 viewBox="0 0 512 512" style="enable-background:new 0 0 512 512;" xml:space="preserve">
<path style="fill:#72ECFF;" d="M182.649,299.832c-52.726-23.571-93.946-65.963-116.066-119.364
	c-22.692-54.764-23-116.065-0.881-171.048c1.51-3.738,4.456-6.729,8.18-8.268c3.724-1.554,7.901-1.539,11.624,0.059
	c54.529,23.219,97.054,67.047,119.745,121.826c22.002,53.107,22.941,111.947,2.639,165.671c-1.7,4.5-5.336,7.71-9.602,9.029
	C194.026,301.25,187.932,302.202,182.649,299.832z"/>
<path style="fill:#00E2FF;" d="M305.868,293.222c-22.119-54.984-21.812-115.421,0.88-170.185
	c22.692-54.78,65.216-98.607,119.745-121.827c3.709-1.568,7.886-1.598,11.624-0.059c3.724,1.539,6.67,4.529,8.18,8.268
	c22.119,54.984,21.812,116.285-0.88,171.049c-22.692,54.779-65.216,97.743-119.745,120.962
	C318.123,304.675,309.08,301.172,305.868,293.222z"/>
<path style="fill:#FEDBAB;" d="M88.19,35.673c-13.544,43.477-11.492,90.793,6.127,133.303
	c17.561,42.407,49.033,76.796,89.329,97.977c13.5-43.448,11.419-90.047-6.127-132.425C159.899,92.005,128.5,56.84,88.19,35.673z"/>
<path style="fill:#FEC478;" d="M423.811,35.673c-40.311,21.167-71.709,56.332-89.329,98.856
	c-17.619,42.509-19.671,88.962-6.127,132.44c40.311-21.167,71.709-55.468,89.329-97.992
	C435.303,126.467,437.355,79.15,423.811,35.673z"/>
<path style="fill:#BBFBFD;" d="M402.501,321.668c-9.607-7.505-15.912-20.714-17.413-36.024l-1.501-15.01
	C378.785,203.988,322.644,151.752,256,151.752s-122.785,52.236-127.587,118.882c0,0.9-0.601,6.904-1.501,14.71
	c-1.501,15.31-7.805,28.52-17.413,36.324c-27.919,22.515-39.627,58.54-30.622,93.964c6.606,25.218,25.218,47.132,49.835,58.24
	c15.91,6.906,27.919,7.805,38.726,8.407c13.509,0.9,24.918,1.501,45.632,16.21c12.608,8.707,27.318,13.509,42.929,13.509
	s30.321-4.802,42.929-13.509c20.714-14.71,32.423-15.61,45.932-16.21c10.807-0.902,23.115-1.501,38.726-8.707
	c24.617-11.108,43.23-33.022,49.535-58.539c2.099-7.805,3.001-15.612,3.001-23.417C436.123,364.6,424.115,339.081,402.501,321.668z"
	/>
<path style="fill:#72ECFF;" d="M436.123,391.617c0,7.805-0.902,15.612-3.001,23.417c-6.305,25.516-24.918,47.431-49.535,58.539
	c-15.612,7.207-27.919,7.805-38.726,8.707c-13.509,0.601-25.218,1.501-45.932,16.21C286.322,507.198,271.611,512,256,512V151.753
	c66.645,0,122.785,52.236,127.587,118.882l1.501,15.01c1.501,15.309,7.805,28.519,17.413,36.024
	C424.115,339.081,436.123,364.6,436.123,391.617z"/>
<path style="fill:#FE73B1;" d="M296.527,387.414l-25.516,25.819v83.756c0,8.407-6.604,15.01-15.01,15.01
	c-8.407,0-15.01-6.604-15.01-15.01v-83.755l-25.516-25.819c-6.004-5.704-6.004-15.308,0-21.013c5.704-6.004,15.309-6.004,21.013,0
	l19.514,19.212l19.514-19.212c5.704-6.004,15.309-6.004,21.013,0C302.532,372.105,302.532,381.71,296.527,387.414z"/>
<circle style="fill:#664B34;" cx="195.955" cy="286.847" r="15.01"/>
<circle style="fill:#59422D;" cx="316.037" cy="286.847" r="15.01"/>
<path style="fill:#FE52A2;" d="M296.527,387.414l-25.516,25.819v83.756c0,8.407-6.604,15.01-15.01,15.01V385.612l19.514-19.212
	c5.704-6.004,15.309-6.004,21.013,0C302.532,372.105,302.532,381.71,296.527,387.414z"/>
<g>
</g>
<g>
</g>
<g>
</g>
<g>
</g>
<g>
</g>
<g>
</g>
<g>
</g>
<g>
</g>
<g>
</g>
<g>
</g>
<g>
</g>
<g>
</g>
<g>
</g>
<g>
</g>
<g>
</g>
</svg>
