<?xml version="1.0" encoding="iso-8859-1"?>
<!-- Generator: Adobe Illustrator 19.0.0, SVG Export Plug-In . SVG Version: 6.00 Build 0)  -->
<svg version="1.1" id="Capa_1" xmlns="http://www.w3.org/2000/svg" xmlns:xlink="http://www.w3.org/1999/xlink" x="0px" y="0px"
	 viewBox="0 0 512 512" style="enable-background:new 0 0 512 512;" xml:space="preserve">
<path style="fill:#73553A;" d="M407,331h-30c-8.291,0-15-6.709-15-15c0-41.353,33.647-75,75-75h30c8.291,0,15,6.709,15,15
	C482,297.353,448.353,331,407,331z"/>
<path style="fill:#FEC478;" d="M394.563,301H407c19.556,0,36.24-12.539,42.437-30H437C417.444,271,400.76,283.539,394.563,301z"/>
<path style="fill:#896748;" d="M136,331h-30c-41.353,0-75-33.647-75-75c0-8.291,6.709-15,15-15h30c41.353,0,75,33.647,75,75
	C151,324.291,144.291,331,136,331z"/>
<path style="fill:#FEDBAB;" d="M63.563,271c6.196,17.461,22.881,30,42.437,30h12.437C112.24,283.539,95.556,271,76,271H63.563z"/>
<path style="fill:#664B34;" d="M209.96,206.547l-15.015-38.071C183.563,139.633,155.186,120,124.175,120H90V88.482
	c34.191-6.969,60-37.266,60-73.482c0-8.291-6.709-15-15-15s-15,6.709-15,15c0,19.53-12.578,36.024-30,42.237V15
	c0-8.291-6.709-15-15-15S60,6.709,60,15v102.237C42.578,111.024,30,94.53,30,75c0-8.291-6.709-15-15-15S0,66.709,0,75
	c0,41.353,33.647,75,75,75h49.175c18.604,0,36.039,12.177,42.851,29.491l15.015,38.071c2.329,5.889,7.983,9.492,13.96,9.492
	c1.831,0,3.691-0.337,5.508-1.04C209.213,222.968,212.992,214.252,209.96,206.547z"/>
<path style="fill:#59422D;" d="M497,60c-8.291,0-15,6.709-15,15c0,19.53-12.578,36.024-30,42.237V15c0-8.291-6.709-15-15-15
	s-15,6.709-15,15v42.237C404.578,51.024,392,34.53,392,15c0-8.291-6.709-15-15-15s-15,6.709-15,15c0,36.216,25.809,66.513,60,73.482
	V120h-34.175c-31.011,0-59.389,19.633-70.771,48.476l-15.015,38.071c-3.032,7.705,0.747,16.421,8.452,19.468
	c1.816,0.703,3.677,1.04,5.508,1.04c5.977,0,11.631-3.604,13.96-9.492l16.015-38.071C352.786,162.177,369.222,150,387.825,150H437
	c41.353,0,75-33.647,75-75C512,66.709,505.291,60,497,60z"/>
<path style="fill:#A07854;" d="M390.5,295.6c-8.701-58.801-58.9-106.8-118.301-113.699C266.8,181.3,261.4,181,256,181
	c-33.3,0-64.799,12.001-89.7,34.2C137.5,240.7,121,277.599,121,316c0,24.3,6.599,48.999,18.9,69.699
	C147.1,398,151,411.501,151,425.9c0,47.401,38.699,86.1,86.1,86.1h37.8c47.401,0,87.1-38.699,87.1-86.1v-0.901
	c0-13.2,3.9-26.699,12.001-40.499C384.2,366.501,390.2,346,391.7,325.6C392.3,315.7,392,305.501,390.5,295.6z"/>
<path style="fill:#896748;" d="M391.7,325.6c-1.5,20.4-7.5,40.901-17.699,58.9C365.9,398.301,362,411.799,362,424.999v0.901
	c0,47.401-39.699,86.1-87.1,86.1H256V181c5.4,0,10.8,0.3,16.199,0.901C331.601,188.8,381.799,236.8,390.5,295.6
	C392,305.501,392.3,315.7,391.7,325.6z"/>
<circle style="fill:#3C3A41;" cx="316" cy="316" r="15"/>
<g>
	<circle style="fill:#57555C;" cx="196" cy="316" r="15"/>
	<path style="fill:#57555C;" d="M301,407c0,19.501-12.599,36-30,42.299V497c0,8.401-6.599,15-15,15s-15-6.599-15-15v-47.701
		C223.599,443,211,426.501,211,407c0-8.401,6.599-15,15-15s15,6.599,15,15s6.599,15,15,15s15-6.599,15-15s6.599-15,15-15
		S301,398.599,301,407z"/>
</g>
<path style="fill:#3C3A41;" d="M301,407c0,19.501-12.599,36-30,42.299V497c0,8.401-6.599,15-15,15v-90c8.401,0,15-6.599,15-15
	s6.599-15,15-15S301,398.599,301,407z"/>
<g>
</g>
<g>
</g>
<g>
</g>
<g>
</g>
<g>
</g>
<g>
</g>
<g>
</g>
<g>
</g>
<g>
</g>
<g>
</g>
<g>
</g>
<g>
</g>
<g>
</g>
<g>
</g>
<g>
</g>
</svg>
